<svg id="レイヤー_1" data-name="レイヤー 1" xmlns="http://www.w3.org/2000/svg" xmlns:xlink="http://www.w3.org/1999/xlink" viewBox="0 0 290.05 87.62"><defs><style>.cls-1{fill:red;}.cls-2{fill:#f13f79;}.cls-3{fill:url(#名称未設定グラデーション_81);}</style><linearGradient id="名称未設定グラデーション_81" x1="0.31" y1="32.35" x2="289.69" y2="32.35" gradientUnits="userSpaceOnUse"><stop offset="0" stop-color="#bf0000"/><stop offset="0.1" stop-color="red"/><stop offset="0.2" stop-color="#f03"/><stop offset="0.3" stop-color="#f90"/><stop offset="0.4" stop-color="#fbbc05"/><stop offset="0.5" stop-color="#34a853"/><stop offset="0.6" stop-color="#008274"/><stop offset="0.7" stop-color="#41c9b4"/><stop offset="0.8" stop-color="#1da1f2"/><stop offset="0.9" stop-color="#4285f4"/><stop offset="1" stop-color="#3b5998"/></linearGradient></defs><path class="cls-1" d="M.31,3.52H11.55V43.38c0,6.39,3.11,9.67,8.53,9.67,3.19,0,6.06-1.31,7.46-3.52,1.23-1.89,1.39-4.6,1.39-7.71V3.52H40.17V41c0,6.48-.33,11.4-4.76,16.56-3.77,4.35-8.69,6.23-15.09,6.23-6.07,0-10.9-1.72-14.59-5.57C1,53.3.31,48,.31,40.34Z"/><path class="cls-2" d="M47.22,2.05h10.9V62.4H47.22Z"/><path class="cls-2" d="M65.59,2.79h10.9V18.86H83v9.35H76.49V62.4H65.59V28.21H60V18.86h5.58Z"/><path class="cls-2" d="M96.5,8.12a7,7,0,0,1-7,7c-4,0-7-3.53-7-7.55a6.79,6.79,0,0,1,7-6.64A7.08,7.08,0,0,1,96.5,8.12ZM84.12,18.86H95V62.4H84.12Z"/><path class="cls-2" d="M140,62.4H129.13V41.33c0-8.45-1.64-13.62-7.7-13.62-5.42,0-9.35,4.43-9.35,13.37V62.4H101.17V18.86h10.91v5a18.2,18.2,0,0,1,13.61-6.15A13.68,13.68,0,0,1,138.4,25.5c4-5.08,8-7.79,14.6-7.79,4.83,0,9.18,2,11.64,5.08,2.87,3.61,3.2,8.37,3.2,14.11V62.4H156.93v-24c0-7.13-2.54-10.66-7.46-10.66C144,27.71,140,32,140,40.92Z"/><path class="cls-2" d="M206.79,57.81c-3.86,3.77-8,5.74-13.45,5.74-11.07,0-20.75-9.51-20.75-22.88,0-13.61,9.19-23,20.5-23a18.74,18.74,0,0,1,13.7,5.9V18.86h10.9V62.4h-10.9ZM183.58,40.59c0,7.46,4.92,12.95,11.73,12.95s12-5.08,12-13c0-7.63-5.09-12.8-12-12.8C188.09,27.71,183.58,33.45,183.58,40.59Z"/><path class="cls-2" d="M226.3,2.79h10.91V18.86h6.48v9.35h-6.48V62.4H226.3V28.21h-5.57V18.86h5.57Z"/><path class="cls-2" d="M286.73,54c-4.67,6.65-10.82,9.6-20,9.6-13.86,0-22.8-10.17-22.8-23,0-11.89,8.61-22.88,22.63-22.88,13.78,0,23.13,9.84,23.13,23.62,0,1-.09,1.47-.09,2.46H254.51c1.06,6.47,6,10.08,12.22,10.08a14.09,14.09,0,0,0,10.82-4.26Zm-8-18.77c-1.48-5.09-6.15-8.2-12-8.2-5.42,0-9.6,2.7-11.73,8.2Z"/><path class="cls-3" d="M.31,3.52H11.55V43.38c0,6.39,3.11,9.67,8.53,9.67,3.19,0,6.06-1.31,7.46-3.52,1.23-1.89,1.39-4.6,1.39-7.71V3.52H40.17V41c0,6.48-.33,11.4-4.76,16.56-3.77,4.35-8.69,6.23-15.09,6.23-6.07,0-10.9-1.72-14.59-5.57C1,53.3.31,48,.31,40.34Z"/><path class="cls-3" d="M47.22,2.05h10.9V62.4H47.22Z"/><path class="cls-3" d="M65.59,2.79h10.9V18.86H83v9.35H76.49V62.4H65.59V28.21H60V18.86h5.58Z"/><path class="cls-3" d="M96.5,8.12a7,7,0,0,1-7,7c-4,0-7-3.53-7-7.55a6.79,6.79,0,0,1,7-6.64A7.08,7.08,0,0,1,96.5,8.12ZM84.12,18.86H95V62.4H84.12Z"/><path class="cls-3" d="M140,62.4H129.13V41.33c0-8.45-1.64-13.62-7.7-13.62-5.42,0-9.35,4.43-9.35,13.37V62.4H101.17V18.86h10.91v5a18.2,18.2,0,0,1,13.61-6.15A13.68,13.68,0,0,1,138.4,25.5c4-5.08,8-7.79,14.6-7.79,4.83,0,9.18,2,11.64,5.08,2.87,3.61,3.2,8.37,3.2,14.11V62.4H156.93v-24c0-7.13-2.54-10.66-7.46-10.66C144,27.71,140,32,140,40.92Z"/><path class="cls-3" d="M206.79,57.81c-3.86,3.77-8,5.74-13.45,5.74-11.07,0-20.75-9.51-20.75-22.88,0-13.61,9.19-23,20.5-23a18.74,18.74,0,0,1,13.7,5.9V18.86h10.9V62.4h-10.9ZM183.58,40.59c0,7.46,4.92,12.95,11.73,12.95s12-5.08,12-13c0-7.63-5.09-12.8-12-12.8C188.09,27.71,183.58,33.45,183.58,40.59Z"/><path class="cls-3" d="M226.3,2.79h10.91V18.86h6.48v9.35h-6.48V62.4H226.3V28.21h-5.57V18.86h5.57Z"/><path class="cls-3" d="M286.73,54c-4.67,6.65-10.82,9.6-20,9.6-13.86,0-22.8-10.17-22.8-23,0-11.89,8.61-22.88,22.63-22.88,13.78,0,23.13,9.84,23.13,23.62,0,1-.09,1.47-.09,2.46H254.51c1.06,6.47,6,10.08,12.22,10.08a14.09,14.09,0,0,0,10.82-4.26Zm-8-18.77c-1.48-5.09-6.15-8.2-12-8.2-5.42,0-9.6,2.7-11.73,8.2Z"/><path d="M141.63,77.62c-3.4-1.72-5.12-3.8-5.12-6.48,0-3.32,2.8-6.11,6.88-6.11a8.63,8.63,0,0,1,7,3.51l-3.28,3.32a5.45,5.45,0,0,0-3.68-2c-1.08,0-1.92.44-1.92,1.28s.76,1.16,1.92,1.76l2,1c3.52,1.8,5.4,3.64,5.4,6.8,0,3.8-3,6.64-7.64,6.64a9,9,0,0,1-7.44-3.64l3.28-3.6a6.67,6.67,0,0,0,4.44,2.48c1.32,0,2.36-.76,2.36-1.72s-.88-1.6-2.36-2.36Z"/><path d="M173.91,82.7c-2.28,3.24-5.28,4.68-9.76,4.68-6.76,0-11.12-5-11.12-11.2a10.85,10.85,0,0,1,11-11.15c6.72,0,11.28,4.79,11.28,11.51,0,.48,0,.72,0,1.2H158.19a5.68,5.68,0,0,0,6,4.92,6.88,6.88,0,0,0,5.28-2.08ZM170,73.54a6.18,6.18,0,0,0-11.56,0Z"/><path d="M194.31,84.58a8.83,8.83,0,0,1-6.56,2.8c-5.4,0-10.12-4.64-10.12-11.16S182.11,65,187.63,65a9.11,9.11,0,0,1,6.68,2.87V65.58h5.32V86.82h-5.32ZM183,76.18c0,3.64,2.4,6.32,5.72,6.32s5.84-2.48,5.84-6.36c0-3.72-2.48-6.24-5.84-6.24C185.19,69.9,183,72.7,183,76.18Z"/><path d="M207.35,68.26A5,5,0,0,1,211.83,65a5,5,0,0,1,2.32.55l-1.64,4.56A3.75,3.75,0,0,0,211,69.7c-1.52,0-2.72,1.76-2.84,4.88,0,1.16,0,2.48,0,3.64v8.6h-5.32V65.58h4.6Z"/><path d="M236.35,82.94a11.45,11.45,0,0,1-9.64,4.44c-7.24,0-11.92-4.92-11.92-11.12,0-6.36,5-11.23,12-11.23a11.44,11.44,0,0,1,9.8,4.83l-4.44,2.44a6.69,6.69,0,0,0-5.32-2.4c-4.08,0-6.68,2.76-6.68,6.44s2.52,6.16,6.44,6.16a6.75,6.75,0,0,0,5.56-2.44Z"/><path d="M240.43,57.39h5.32V67.74A9.41,9.41,0,0,1,252,65c4,0,7.28,2.59,7.28,7.75v14H254v-10c0-4.32-.52-6.88-3.64-6.88a4.21,4.21,0,0,0-3.6,2.08c-1.08,1.68-1,3.6-1,5.8v9h-5.32Z"/></svg>